:SAMPLES-PER-SECOND 25
:FULLY-SPECIFIED
:DEGREES
737
root  9.34305 44.9741 -43.0013 152.682 -5.92856 155.48
RightUpLeg  -28.1411 10.4444 -24.4903
RightLeg  29.5357 10.692 6.26167
RightFoot  16.7979 -3.00439 12.4162
RightToes  2.84633e-005 7.89722e-005 -0.000426369
Spine  13.6457 -3.42033 2.49139
Spine1  28.1024 -6.84647 -1.97771
HEad  26.7547 -15.4869 1.12903
LeftShoulder1  -3.88251e-019 0 -3.92111e-022
LeftArm  -41.7002 -10.0571 -52.9795
LeftForeArm  33.618 -61.489 -17.6567
LeftHand  -0.799368 -3.81094 10.3381
RightShoulder  7.45443e-017 -2.42657e-020 1.96277e-018
RightArm  -27.1897 -20.1875 74.9378
RightForeArm  -14.6109 10.5167 8.39568
RightHand  -6.01873 23.7541 -23.9062
LeftUpLeg  -77.6186 3.83659 22.2295
LeftLeg  130.97 20.644 -21.0934
LeftFoot  -7.25907 0.587582 -15.0831
LeftToes  3.91355e-005 3.11907e-005 -4.10385e-006
738
root  9.09583 44.8948 -43.4873 152.13 -4.89152 157.157
RightUpLeg  -25.7126 12.5506 -24.0768
RightLeg  26.1639 10.8796 5.55107
RightFoot  16.9183 -2.7137 11.2143
RightToes  2.84633e-005 7.89722e-005 -0.000426369
Spine  13.4176 -3.5705 3.25256
Spine1  27.585 -7.13351 -0.760169
HEad  26.8237 -15.7995 1.36498
LeftShoulder1  -3.88251e-019 0 -3.92111e-022
LeftArm  -42.1544 -6.55619 -54.228
LeftForeArm  33.3787 -61.2127 -17.4533
LeftHand  -0.84665 -3.75137 10.9985
RightShoulder  7.45443e-017 -2.42657e-020 1.96277e-018
RightArm  -27.0756 -21.8661 74.422
RightForeArm  -15.4245 11.747 7.49884
RightHand  -6.01396 23.7165 -23.9178
LeftUpLeg  -76.144 3.95908 25.0971
LeftLeg  130.6 24.7044 -24.7758
LeftFoot  -10.8254 0.124499 -13.923
LeftToes  3.91355e-005 3.11907e-005 -4.10385e-006
739
root  8.80826 44.7647 -44.0998 151.597 -3.62663 159.109
RightUpLeg  -23.0919 13.7763 -22.7123
RightLeg  23.565 11.5884 5.33765
RightFoot  16.7448 -2.36558 9.91145
RightToes  2.84633e-005 7.89722e-005 -0.000426369
Spine  13.1753 -3.52469 4.07583
Spine1  27.0034 -6.99107 0.738802
HEad  26.7127 -16.7943 2.3297
LeftShoulder1  -3.88251e-019 0 -3.92111e-022
LeftArm  -41.3619 -4.94799 -54.3333
LeftForeArm  33.552 -61.0382 -17.2897
LeftHand  -0.842458 -3.70782 10.9942
RightShoulder  7.45443e-017 -2.42657e-020 1.96277e-018
RightArm  -27.4266 -23.726 73.9299
RightForeArm  -14.5424 11.8695 7.43345
RightHand  -6.00297 23.9359 -23.7083
LeftUpLeg  -74.3794 4.24192 29.2201
LeftLeg  132.228 25.4902 -24.1897
LeftFoot  -12.4931 -0.0730224 -14.4293
LeftToes  3.91355e-005 3.11907e-005 -4.10385e-006
740
root  8.54877 44.6099 -44.7834 151.358 -2.03473 160.179
RightUpLeg  -20.4209 10.2481 -20.1843
RightLeg  21.4437 17.3065 5.54429
RightFoot  17.4838 -2.90061 11.7328
RightToes  2.84633e-005 7.89722e-005 -0.000426369
Spine  12.7809 -3.30073 4.50338
Spine1  26.093 -6.30319 1.44744
HEad  27.1158 -17.5359 3.0817
LeftShoulder1  -3.88251e-019 0 -3.92111e-022
LeftArm  -39.776 -4.19896 -53.731
LeftForeArm  34.7409 -61.06 -17.1762
LeftHand  -0.828544 -3.68451 10.8451
RightShoulder  7.45443e-017 -2.42657e-020 1.96277e-018
RightArm  -27.6448 -26.1185 73.4565
RightForeArm  -13.5093 12.2361 7.35236
RightHand  -5.46196 23.6236 -21.8829
LeftUpLeg  -71.5402 4.86239 33.5994
LeftLeg  134.301 26.2513 -23.2358
LeftFoot  -14.9651 -0.365506 -14.2554
LeftToes  3.91355e-005 3.11907e-005 -4.10385e-006
741
root  8.38289 44.5148 -45.515 152.334 -0.019035 160.731
RightUpLeg  -18.9554 2.72098 -16.8541
RightLeg  19.375 26.0218 5.28103
RightFoot  19.0678 -4.0753 15.4096
RightToes  2.84633e-005 7.89722e-005 -0.000426369
Spine  12.0576 -2.99517 4.75119
Spine1  24.4819 -5.42442 1.86634
HEad  27.5279 -17.5489 2.87706
LeftShoulder1  -3.88251e-019 0 -3.92111e-022
LeftArm  -38.2366 -4.50691 -52.7292
LeftForeArm  34.8809 -60.7319 -16.8967
LeftHand  -0.79452 -3.57369 10.5338
RightShoulder  7.45443e-017 -2.42657e-020 1.96277e-018
RightArm  -27.9616 -28.0236 72.6375
RightForeArm  -11.7863 12.1473 7.29212
RightHand  -4.82327 22.9706 -19.8654
LeftUpLeg  -68.1973 5.50897 37.8171
LeftLeg  134.851 29.2499 -24.9129
LeftFoot  -18.9625 -0.72962 -12.6135
LeftToes  3.91355e-005 3.11907e-005 -4.10385e-006
742
root  8.26837 44.4439 -46.2748 153.783 2.66456 160.895
RightUpLeg  -18.808 -1.0924 -14.5214
RightLeg  17.5117 28.8996 4.18528
RightFoot  20.9113 -4.52009 16.0591
RightToes  2.84633e-005 7.89722e-005 -0.000426369
Spine  11.175 -2.77226 4.8695
Spine1  22.4963 -4.62587 2.17093
HEad  28.3147 -16.576 2.10764
LeftShoulder1  -3.88251e-019 0 -3.92111e-022
LeftArm  -36.7626 -4.78763 -51.3347
LeftForeArm  35.2285 -60.3983 -16.5967
LeftHand  -0.795153 -3.16431 11.0211
RightShoulder  7.45443e-017 -2.42657e-020 1.96277e-018
RightArm  -28.2334 -29.8653 71.3682
RightForeArm  -9.16372 11.5408 7.34432
RightHand  -4.25501 22.6378 -17.8221
LeftUpLeg  -63.5775 5.27178 41.9071
LeftLeg  135.544 31.3349 -25.7388
LeftFoot  -23.5207 -0.998745 -10.6582
LeftToes  3.91355e-005 3.11907e-005 -4.10385e-006
743
root  8.27025 44.3696 -47.0754 155.891 5.03807 160.56
RightUpLeg  -19.4753 -2.7892 -13.2232
RightLeg  15.486 26.6484 2.25617
RightFoot  23.1047 -4.63062 15.3989
RightToes  2.84633e-005 7.89722e-005 -0.000426369
Spine  10.0528 -2.86247 4.72809
Spine1  20.0497 -4.43606 2.0335
HEad  28.5062 -14.8448 0.473175
LeftShoulder1  -3.88251e-019 0 -3.92111e-022
LeftArm  -35.6889 -6.31202 -49.5899
LeftForeArm  35.405 -59.4106 -15.8461
LeftHand  -0.808028 -2.56595 11.9881
RightShoulder  7.45443e-017 -2.42657e-020 1.96277e-018
RightArm  -28.0864 -31.3835 69.1593
RightForeArm  -5.65823 10.66 7.50806
RightHand  -3.89309 22.4078 -16.4995
LeftUpLeg  -58.8291 3.61811 44.867
LeftLeg  136.597 31.6189 -25.0973
LeftFoot  -28.6646 -1.25779 -9.3598
LeftToes  3.91355e-005 3.11907e-005 -4.10385e-006
744
root  8.32397 44.1577 -47.9304 158.43 7.30132 160.467
RightUpLeg  -20.6514 -3.77164 -11.9672
RightLeg  13.8185 25.207 1.17902
RightFoot  25.7462 -5.05881 15.5435
RightToes  2.84633e-005 7.89722e-005 -0.000426369
Spine  8.82168 -3.27917 4.5875
Spine1  17.4023 -4.96767 1.97869
HEad  27.6526 -12.8821 -0.797246
LeftShoulder1  -3.88251e-019 0 -3.92111e-022
LeftArm  -35.898 -10.0504 -48.2124
LeftForeArm  36.4744 -57.7647 -14.6147
LeftHand  -0.873588 -2.17659 13.5817
RightShoulder  7.45443e-017 -2.42657e-020 1.96277e-018
RightArm  -27.6809 -32.6299 66.4863
RightForeArm  -1.01558 9.42491 7.8133
RightHand  -3.65703 22.5049 -15.4885
LeftUpLeg  -54.5533 0.750892 47.7079
LeftLeg  137.927 31.1544 -23.8135
LeftFoot  -32.3375 -1.37213 -8.44531
LeftToes  3.91355e-005 3.11907e-005 -4.10385e-006
745
root  8.46017 43.7659 -48.8816 160.736 9.53263 160.276
RightUpLeg  -21.6939 -3.2936 -11.104
RightLeg  12.9305 24.4082 0.635219
RightFoot  27.7312 -5.44751 15.831
RightToes  2.84633e-005 7.89722e-005 -0.000426369
Spine  7.83659 -4.2251 4.07151
Spine1  15.2892 -6.44107 1.24695
HEad  26.1202 -10.8768 -0.4957
LeftShoulder1  -3.88251e-019 0 -3.92111e-022
LeftArm  -37.9028 -14.5042 -47.3906
LeftForeArm  38.6532 -57.3301 -14.13
LeftHand  -0.915204 -2.01605 14.4968
RightShoulder  7.45443e-017 -2.42657e-020 1.96277e-018
RightArm  -26.2646 -33.2732 64.2206
RightForeArm  3.31084 9.10301 8.06258
RightHand  -3.4034 22.3391 -14.5423
LeftUpLeg  -49.9293 -3.27874 49.939
LeftLeg  139.943 28.914 -21.0399
LeftFoot  -34.1137 -1.34342 -7.68106
LeftToes  3.91355e-005 3.11907e-005 -4.10385e-006
746
root  8.72925 43.1078 -49.8869 162.088 12.6169 159.461
RightUpLeg  -22.2002 -1.85495 -10.3852
RightLeg  11.9645 21.7603 -0.413701
RightFoot  30.341 -5.63207 15.2983
RightToes  2.84633e-005 7.89722e-005 -0.000426369
Spine  7.35564 -5.37441 2.76341
Spine1  14.1253 -7.87767 -0.850182
HEad  23.9433 -8.5979 0.901498
LeftShoulder1  -3.88251e-019 0 -3.92111e-022
LeftArm  -39.7755 -19.9433 -47.2066
LeftForeArm  40.9828 -57.5184 -14.0315
LeftHand  -0.832458 -0.879315 15.5195
RightShoulder  7.45443e-017 -2.42657e-020 1.96277e-018
RightArm  -23.6578 -33.356 62.2834
RightForeArm  7.4029 9.4148 9.28752
RightHand  -2.99592 22.0049 -13.0252
LeftUpLeg  -42.4348 -8.3296 51.5645
LeftLeg  141.674 24.7025 -17.4046
LeftFoot  -34.5908 -0.19272 -1.95315
LeftToes  3.91355e-005 3.11907e-005 -4.10385e-006
747
root  9.0928 42.1226 -51.0477 164.028 15.7284 158.552
RightUpLeg  -22.8284 -2.01472 -9.7196
RightLeg  10.5556 18.7833 -1.29672
RightFoot  34.2275 -4.99345 12.4474
RightToes  2.84633e-005 7.89722e-005 -0.000426369
Spine  6.10646 -6.91004 1.35932
Spine1  11.491 -10.2935 -3.17186
HEad  24.3471 -5.83249 2.47638
LeftShoulder1  -3.88251e-019 0 -3.92111e-022
LeftArm  -39.6797 -24.1088 -48.6862
LeftForeArm  41.2257 -56.3906 -13.3384
LeftHand  -0.887272 -1.77054 14.5388
RightShoulder  7.45443e-017 -2.42657e-020 1.96277e-018
RightArm  -15.4158 -34.8805 58.807
RightForeArm  8.91316 11.8183 10.6672
RightHand  -2.62671 21.5307 -11.6888
LeftUpLeg  -35.2609 -12.8903 50.534
LeftLeg  141.573 19.0911 -13.9119
LeftFoot  -30.4967 1.33897 6.92783
LeftToes  3.91355e-005 3.11907e-005 -4.10385e-006
